<svg width="163" height="173" viewBox="0 0 163 173" fill="none" xmlns="http://www.w3.org/2000/svg">
<path d="M70.56 73.512L60.12 73.368C57.912 73.368 55.728 73.44 53.568 73.584C52.368 82.176 51.768 88.536 51.768 92.664C51.768 96.792 52.104 99.648 52.776 101.232C49.8 100.176 47.688 98.76 46.44 96.984C45.24 95.16 44.64 93.048 44.64 90.648C44.64 88.2 44.88 85.08 45.36 81.288C45.888 77.448 46.2 75.24 46.296 74.664C44.664 75.048 43.44 75.384 42.624 75.672C42.528 74.808 42.48 73.896 42.48 72.936C42.48 70.2 44.064 68.592 47.232 68.112C48.288 59.952 48.816 52.968 48.816 47.16C48.816 45.72 48.72 43.752 48.528 41.256C52.176 41.448 54.456 42.312 55.368 43.848C55.848 44.712 56.16 45.552 56.304 46.368C56.448 47.136 56.52 48.48 56.52 50.4C56.52 52.32 56.16 55.608 55.44 60.264C54.768 64.92 54.408 67.464 54.36 67.896C62.904 67.896 70.584 67.824 77.4 67.68C78.456 59.664 78.984 52.824 78.984 47.16C78.984 45.72 78.888 43.752 78.696 41.256C82.344 41.448 84.624 42.312 85.536 43.848C86.016 44.712 86.328 45.552 86.472 46.368C86.616 47.136 86.688 48.48 86.688 50.4C86.688 52.32 85.896 58.704 84.312 69.552C82.728 80.4 81.936 88.008 81.936 92.376C81.936 96.696 82.272 99.648 82.944 101.232C79.968 100.176 77.856 98.76 76.608 96.984C75.408 95.16 74.808 93.048 74.808 90.648C74.808 88.2 75.312 83.256 76.32 75.816L77.328 68.472C76.608 71.832 74.352 73.512 70.56 73.512Z" fill="white"/>
<path d="M95.352 73.848C95.832 74.712 96.144 75.552 96.288 76.368C96.432 77.136 96.504 78.48 96.504 80.4C96.504 82.32 95.904 87.384 94.704 95.592L93.768 102.072C108.504 90.024 117.624 79.824 121.128 71.472C122.232 73.68 122.784 76.176 122.784 78.96C122.784 81.696 121.368 84.552 118.536 87.528C115.704 90.504 111.528 93.96 106.008 97.896C108.696 106.296 111.36 112.776 114 117.336C116.64 121.848 120.024 126.288 124.152 130.656C123.192 131.136 121.92 131.376 120.336 131.376C118.752 131.376 117.024 130.8 115.152 129.648C113.328 128.496 111.696 127.056 110.256 125.328C108.864 123.6 107.448 121.368 106.008 118.632C103.8 114.504 101.52 109.2 99.168 102.72C98.928 102.912 98.04 103.536 96.504 104.592C95.016 105.6 93.888 106.392 93.12 106.968C92.208 113.928 91.752 119.328 91.752 123.168C91.752 126.96 92.088 129.648 92.76 131.232C89.784 130.176 87.672 128.76 86.424 126.984C85.224 125.16 84.624 123.048 84.624 120.648C84.624 118.2 85.128 113.256 86.136 105.816C87.912 93.48 88.8 83.928 88.8 77.16C88.8 75.72 88.704 73.752 88.512 71.256C92.16 71.448 94.44 72.312 95.352 73.848Z" fill="white"/>
<path d="M123.885 171.766L156.464 69.758L117.042 160.968L1 132.52L123.885 171.766Z" fill="white"/>
<path d="M40.3912 1L5.03927 102.081L46.9371 11.9807L162.159 43.587L40.3912 1Z" fill="white"/>
<path d="M70.56 73.512L60.12 73.368C57.912 73.368 55.728 73.44 53.568 73.584C52.368 82.176 51.768 88.536 51.768 92.664C51.768 96.792 52.104 99.648 52.776 101.232C49.8 100.176 47.688 98.76 46.44 96.984C45.24 95.16 44.64 93.048 44.64 90.648C44.64 88.2 44.88 85.08 45.36 81.288C45.888 77.448 46.2 75.24 46.296 74.664C44.664 75.048 43.44 75.384 42.624 75.672C42.528 74.808 42.48 73.896 42.48 72.936C42.48 70.2 44.064 68.592 47.232 68.112C48.288 59.952 48.816 52.968 48.816 47.16C48.816 45.72 48.72 43.752 48.528 41.256C52.176 41.448 54.456 42.312 55.368 43.848C55.848 44.712 56.16 45.552 56.304 46.368C56.448 47.136 56.52 48.48 56.52 50.4C56.52 52.32 56.16 55.608 55.44 60.264C54.768 64.92 54.408 67.464 54.36 67.896C62.904 67.896 70.584 67.824 77.4 67.68C78.456 59.664 78.984 52.824 78.984 47.16C78.984 45.72 78.888 43.752 78.696 41.256C82.344 41.448 84.624 42.312 85.536 43.848C86.016 44.712 86.328 45.552 86.472 46.368C86.616 47.136 86.688 48.48 86.688 50.4C86.688 52.32 85.896 58.704 84.312 69.552C82.728 80.4 81.936 88.008 81.936 92.376C81.936 96.696 82.272 99.648 82.944 101.232C79.968 100.176 77.856 98.76 76.608 96.984C75.408 95.16 74.808 93.048 74.808 90.648C74.808 88.2 75.312 83.256 76.32 75.816L77.328 68.472C76.608 71.832 74.352 73.512 70.56 73.512Z" stroke="black" stroke-opacity="0.48"/>
<path d="M95.352 73.848C95.832 74.712 96.144 75.552 96.288 76.368C96.432 77.136 96.504 78.48 96.504 80.4C96.504 82.32 95.904 87.384 94.704 95.592L93.768 102.072C108.504 90.024 117.624 79.824 121.128 71.472C122.232 73.68 122.784 76.176 122.784 78.96C122.784 81.696 121.368 84.552 118.536 87.528C115.704 90.504 111.528 93.96 106.008 97.896C108.696 106.296 111.36 112.776 114 117.336C116.64 121.848 120.024 126.288 124.152 130.656C123.192 131.136 121.92 131.376 120.336 131.376C118.752 131.376 117.024 130.8 115.152 129.648C113.328 128.496 111.696 127.056 110.256 125.328C108.864 123.6 107.448 121.368 106.008 118.632C103.8 114.504 101.52 109.2 99.168 102.72C98.928 102.912 98.04 103.536 96.504 104.592C95.016 105.6 93.888 106.392 93.12 106.968C92.208 113.928 91.752 119.328 91.752 123.168C91.752 126.96 92.088 129.648 92.76 131.232C89.784 130.176 87.672 128.76 86.424 126.984C85.224 125.16 84.624 123.048 84.624 120.648C84.624 118.2 85.128 113.256 86.136 105.816C87.912 93.48 88.8 83.928 88.8 77.16C88.8 75.72 88.704 73.752 88.512 71.256C92.16 71.448 94.44 72.312 95.352 73.848Z" stroke="black" stroke-opacity="0.48"/>
<path d="M123.885 171.766L156.464 69.758L117.042 160.968L1 132.52L123.885 171.766Z" stroke="black" stroke-opacity="0.48"/>
<path d="M40.3912 1L5.03927 102.081L46.9371 11.9807L162.159 43.587L40.3912 1Z" stroke="black" stroke-opacity="0.48"/>
</svg>
